<?xml version="1.0" encoding="utf-8"?>
<svg width="500px" height="500px" viewBox="0 0 500 500" version="1.1" xmlns:xlink="http://www.w3.org/1999/xlink" xmlns="http://www.w3.org/2000/svg">
  <desc>Created with Lunacy</desc>
  <defs>
    <linearGradient x1="-4.101825E-08" y1="0.45442757" x2="1" y2="0.45799458" id="gradient_1">
      <stop offset="0" stop-color="#29BE8F" />
      <stop offset="1" stop-color="#059A77" />
    </linearGradient>
    <linearGradient x1="0.2043262" y1="0.4145767" x2="0.224565968" y2="1.48365545" id="gradient_2">
      <stop offset="0" stop-color="#AFF0C7" />
      <stop offset="1" stop-color="#5DDA8B" />
    </linearGradient>
    <rect width="500" height="500" id="artboard_1" />
    <clipPath id="clip_1">
      <use xlink:href="#artboard_1" clip-rule="evenodd" />
    </clipPath>
  </defs>
  <g id="HD" clip-path="url(#clip_1)">
    <use xlink:href="#artboard_1" stroke="none" fill="#FFFFFF" fill-opacity="0" />
    <path d="M79.999 0L286.001 0Q287.228 0 288.454 0.060226Q289.68 0.120452 290.902 0.240759Q292.123 0.361066 293.337 0.541164Q294.551 0.721262 295.755 0.960717Q296.959 1.20017 298.15 1.49841Q299.34 1.79664 300.515 2.15294Q301.689 2.50924 302.845 2.92274Q304.001 3.33624 305.135 3.80595Q306.269 4.27565 307.378 4.80044Q308.488 5.32522 309.57 5.90382Q310.653 6.48241 311.706 7.11343Q312.758 7.74444 313.779 8.42635Q314.799 9.10826 315.785 9.83943Q316.771 10.5706 317.72 11.3492Q318.669 12.1279 319.578 12.9522Q320.488 13.7765 321.356 14.6444Q322.224 15.5123 323.048 16.4217Q323.872 17.3312 324.651 18.28Q325.429 19.2288 326.161 20.2146Q326.892 21.2005 327.574 22.221Q328.256 23.2416 328.887 24.2944Q329.518 25.3472 330.096 26.4296Q330.675 27.5121 331.199 28.6217Q331.724 29.7312 332.194 30.8652Q332.664 31.9992 333.077 33.1548Q333.491 34.3105 333.847 35.4851Q334.203 36.6596 334.502 37.8502Q334.8 39.0409 335.039 40.2447Q335.279 41.4485 335.459 42.6626Q335.639 43.8767 335.759 45.0982Q335.88 46.3197 335.94 47.5457Q336 48.7716 336 49.999L336 215.001Q336 216.965 335.904 218.926Q335.807 220.888 335.615 222.842Q335.422 224.797 335.134 226.739Q334.846 228.682 334.463 230.608Q334.08 232.534 333.602 234.439Q333.125 236.344 332.555 238.223Q331.985 240.103 331.324 241.952Q330.662 243.801 329.91 245.615Q329.159 247.43 328.319 249.205Q327.48 250.98 326.554 252.712Q325.628 254.444 324.618 256.129Q323.609 257.813 322.518 259.446Q321.427 261.079 320.257 262.656Q319.087 264.234 317.841 265.752Q316.595 267.27 315.276 268.725Q313.957 270.18 312.569 271.569Q311.18 272.957 309.725 274.276Q308.27 275.595 306.752 276.841Q305.234 278.087 303.656 279.257Q302.079 280.427 300.446 281.518Q298.813 282.609 297.129 283.618Q295.444 284.628 293.712 285.554Q291.98 286.48 290.205 287.319Q288.43 288.159 286.615 288.91Q284.801 289.662 282.952 290.324Q281.103 290.985 279.223 291.555Q277.344 292.125 275.439 292.602Q273.534 293.08 271.608 293.463Q269.682 293.846 267.739 294.134Q265.797 294.422 263.842 294.615Q261.888 294.807 259.926 294.904Q257.965 295 256.001 295L79.999 295Q78.0351 295 76.0736 294.904Q74.1121 294.807 72.1577 294.615Q70.2033 294.422 68.2607 294.134Q66.3181 293.846 64.392 293.463Q62.4658 293.08 60.5608 292.602Q58.6558 292.125 56.7765 291.555Q54.8972 290.985 53.0481 290.324Q51.1991 289.662 49.3847 288.91Q47.5703 288.159 45.795 287.319Q44.0197 286.48 42.2877 285.554Q40.5558 284.628 38.8713 283.618Q37.1868 282.609 35.5539 281.518Q33.921 280.427 32.3436 279.257Q30.7663 278.087 29.2482 276.841Q27.7301 275.595 26.275 274.276Q24.8198 272.957 23.4312 271.569Q22.0425 270.18 20.7236 268.725Q19.4048 267.27 18.1589 265.752Q16.9131 264.234 15.7432 262.656Q14.5733 261.079 13.4823 259.446Q12.3912 257.813 11.3816 256.129Q10.3719 254.444 9.44618 252.712Q8.52042 250.98 7.68076 249.205Q6.8411 247.43 6.08956 245.615Q5.33802 243.801 4.67642 241.952Q4.01481 240.103 3.44473 238.223Q2.87465 236.344 2.39747 234.439Q1.92029 232.534 1.53716 230.608Q1.15403 228.682 0.865868 226.739Q0.577709 224.797 0.385217 222.842Q0.192725 220.888 0.0963623 218.926Q0 216.965 0 215.001L0 79.999Q0 78.0351 0.0963623 76.0736Q0.192725 74.1121 0.385217 72.1577Q0.577709 70.2033 0.865868 68.2607Q1.15403 66.3181 1.53716 64.392Q1.92029 62.4658 2.39747 60.5608Q2.87465 58.6558 3.44473 56.7765Q4.01481 54.8972 4.67642 53.0481Q5.33802 51.1991 6.08956 49.3847Q6.8411 47.5703 7.68076 45.795Q8.52042 44.0197 9.44618 42.2877Q10.3719 40.5558 11.3816 38.8713Q12.3912 37.1868 13.4823 35.5539Q14.5733 33.921 15.7432 32.3436Q16.9131 30.7663 18.1589 29.2482Q19.4048 27.7301 20.7236 26.275Q22.0425 24.8198 23.4312 23.4312Q24.8198 22.0425 26.275 20.7236Q27.7301 19.4048 29.2482 18.1589Q30.7663 16.9131 32.3437 15.7432Q33.921 14.5733 35.5539 13.4823Q37.1868 12.3912 38.8713 11.3816Q40.5558 10.3719 42.2877 9.44618Q44.0197 8.52042 45.795 7.68076Q47.5703 6.8411 49.3847 6.08956Q51.1991 5.33802 53.0481 4.67642Q54.8972 4.01481 56.7765 3.44473Q58.6558 2.87465 60.5608 2.39747Q62.4658 1.92029 64.392 1.53716Q66.3181 1.15403 68.2607 0.865868Q70.2033 0.577709 72.1577 0.385217Q74.1121 0.192725 76.0736 0.0963623Q78.0351 0 79.999 0Z" transform="translate(112 80.7097)" id="Rectangle" fill="url(#gradient_1)" stroke="none" />
    <path d="M121.854 304.511L250.869 626.917C257.293 642.97 276.519 656.073 293.807 655.82C297.877 655.76 276.126 655.755 170 655.983C166.818 655.99 122.557 655.99 79.9996 655.988C35.8174 655.986 0.000572237 620.167 0.000531502 575.984L0.000302656 327.986Q0.000300139 325.259 0.235344 322.541Q0.470387 319.824 0.938728 317.137Q1.40707 314.45 2.10522 311.813Q2.80338 309.176 3.72615 306.609Q4.64892 304.043 5.78945 301.565Q6.92998 299.087 8.27977 296.717Q9.62957 294.347 11.1786 292.102Q12.7276 289.856 14.4643 287.753Q16.2011 285.65 18.1126 283.704Q20.0241 281.758 22.0962 279.985Q24.1682 278.211 26.3855 276.622Q28.6027 275.033 30.9485 273.642Q33.2944 272.25 35.7515 271.066Q38.2085 269.881 40.7585 268.913Q43.3085 267.945 45.9325 267.2Q48.5564 266.455 51.2348 265.939Q53.9131 265.423 56.626 265.14Q59.3389 264.857 62.0661 264.808Q64.7933 264.76 67.5145 264.946Q70.2357 265.133 72.9307 265.554Q75.6257 265.974 78.2744 266.625Q80.9232 267.277 83.506 268.154Q86.0887 269.031 88.5863 270.127Q91.0839 271.223 93.4777 272.531Q95.8716 273.838 98.1438 275.347Q100.416 276.856 102.55 278.555Q104.684 280.254 106.663 282.131Q108.642 284.008 110.453 286.048Q112.263 288.088 113.891 290.277Q115.519 292.465 116.952 294.786Q118.385 297.107 119.613 299.543Q120.841 301.978 121.854 304.511L121.854 304.511Z" transform="matrix(-4.371139E-08 -1 1 -4.371139E-08 -207.0143 419.9996)" id="Triangle" fill="url(#gradient_2)" stroke="none" />
  </g>
</svg>